<svg width="1186" height="372" viewBox="0 0 1186 372" fill="none" xmlns="http://www.w3.org/2000/svg">
<path fill-rule="evenodd" clip-rule="evenodd" d="M23.0524 1.93757C12.2104 5.83657 4.83343 13.1046 1.39943 23.2696C-0.998572 30.3686 -0.214574 43.7876 2.98543 50.3976C6.19143 57.0196 12.8314 63.4756 19.7954 66.7396C24.6574 69.0186 26.8084 69.4076 34.4914 69.3946C45.8894 69.3756 50.9265 67.2326 59.0275 58.9536L64.8904 52.9626L92.1904 61.4966C118.06 69.5846 160.145 83.0296 182.86 90.4646C188.563 92.3316 195.121 94.9676 197.434 96.3236C204.204 100.291 211.657 107.588 215.199 113.715L218.491 119.41L218.758 230.16C218.905 291.073 218.777 340.91 218.475 340.91C218.172 340.91 215.802 339.844 213.208 338.541C206.787 335.315 174.72 324.596 124.991 309.051C71.6744 292.384 50.2594 285.91 48.4454 285.91C47.1834 285.91 46.9914 273.326 46.9914 190.633C46.9914 84.8296 47.4784 92.2646 40.3524 89.2866C36.1794 87.5436 32.3794 88.3416 28.7414 91.7256L25.9914 94.2836V197.026C25.9914 307.828 25.6864 301.081 30.8194 303.813C32.2534 304.576 64.2244 314.591 98.4914 325.013C103.991 326.685 110.291 328.669 112.491 329.42C114.691 330.172 123.916 333.096 132.991 335.919C206.507 358.781 211.066 360.501 220.773 369.024C225.923 373.546 229.549 373.014 244.632 365.527C251.704 362.016 263.791 356.634 271.491 353.568C293.812 344.678 382.722 311.748 401.991 305.233C409.716 302.621 412.522 300.974 414.26 298.032C415.81 295.408 415.948 285.209 416.028 167.307L416.114 39.4276L413.942 37.6686C412.747 36.7016 410.774 35.9096 409.557 35.9096C408.34 35.9096 395.902 39.6746 381.917 44.2756C367.933 48.8776 337.591 58.8016 314.491 66.3296C247.587 88.1346 248.284 87.8816 239.986 93.4096L232.481 98.4096L225.986 91.5286C218.779 83.8926 207.732 75.9606 200.133 72.9656C197.399 71.8876 186.686 68.3116 176.327 65.0186C165.967 61.7246 142.641 54.3066 124.491 48.5346C106.341 42.7616 86.5634 36.5036 80.5394 34.6276C74.5164 32.7526 69.2704 30.5856 68.8824 29.8136C68.4944 29.0416 67.6794 26.5376 67.0714 24.2496C66.4624 21.9616 64.4715 17.9116 62.6445 15.2496C53.7075 2.22157 37.4564 -3.24243 23.0524 1.93757ZM41.1714 24.2276C47.6854 28.2086 48.7744 38.5876 43.2574 44.1056C37.5374 49.8246 27.6834 48.7376 23.6714 41.9446C21.2524 37.8496 21.4874 30.8206 24.1564 27.4266C28.2424 22.2316 35.6314 20.8426 41.1714 24.2276ZM395.991 173.252V283.593L391.741 284.855C384.104 287.121 328.306 307.1 307.991 314.841C303.866 316.413 290.141 321.592 277.491 326.349C264.841 331.107 251.239 336.329 247.264 337.955C243.289 339.58 239.792 340.91 239.492 340.91C239.192 340.91 239.07 292.647 239.219 233.66L239.491 126.41L242.391 121.177C247.511 111.937 251.233 109.904 280.417 100.405C294.758 95.7376 326.066 85.4116 349.991 77.4576C373.916 69.5036 394.054 62.9766 394.741 62.9526C395.734 62.9186 395.991 85.6216 395.991 173.252ZM435.491 91.3486C434.941 91.5606 433.254 92.0076 431.741 92.3416L428.991 92.9476V200.822C428.991 302.621 428.892 308.736 427.241 309.41C426.279 309.802 417.391 312.956 407.491 316.417C354.092 335.087 323.991 347.552 319.975 352.658C316.951 356.502 317.342 362.152 320.909 366.144C325.396 371.166 329.063 370.564 352.169 361.018C369.626 353.805 417.223 335.914 436.991 329.134C441.243 327.676 445.682 325.371 447.241 323.813L449.991 321.064V208.661V96.2586L447.684 94.0916C445.547 92.0836 437.991 90.3836 435.491 91.3486Z" fill="white"/>
<path d="M514.841 128.8C508.841 128.8 503.908 127.067 500.041 123.6C496.308 120 494.441 115.6 494.441 110.4C494.441 105.067 496.308 100.667 500.041 97.2C503.908 93.6 508.841 91.8 514.841 91.8C520.708 91.8 525.508 93.6 529.241 97.2C533.108 100.667 535.041 105.067 535.041 110.4C535.041 115.6 533.108 120 529.241 123.6C525.508 127.067 520.708 128.8 514.841 128.8ZM531.841 140.4V252H497.641V140.4H531.841ZM642.626 167.6V196H554.626V167.6H642.626ZM772.641 276L754.641 251.8C749.308 252.867 744.108 253.4 739.041 253.4C725.841 253.4 713.708 250.333 702.641 244.2C691.708 238.067 682.975 229.533 676.441 218.6C670.041 207.533 666.841 195.133 666.841 181.4C666.841 167.667 670.041 155.333 676.441 144.4C682.975 133.467 691.708 124.933 702.641 118.8C713.708 112.667 725.841 109.6 739.041 109.6C752.241 109.6 764.308 112.667 775.241 118.8C786.308 124.933 794.975 133.467 801.241 144.4C807.641 155.333 810.841 167.667 810.841 181.4C810.841 193.4 808.375 204.4 803.441 214.4C798.641 224.267 791.908 232.467 783.241 239L814.041 276H772.641ZM701.841 181.4C701.841 193.8 705.175 203.733 711.841 211.2C718.641 218.533 727.708 222.2 739.041 222.2C750.241 222.2 759.175 218.467 765.841 211C772.641 203.533 776.041 193.667 776.041 181.4C776.041 169 772.641 159.133 765.841 151.8C759.175 144.333 750.241 140.6 739.041 140.6C727.708 140.6 718.641 144.267 711.841 151.6C705.175 158.933 701.841 168.867 701.841 181.4ZM864.458 225.6H909.258V252H830.258V111.6H864.458V225.6ZM918.771 196C918.771 184.533 920.904 174.467 925.171 165.8C929.571 157.133 935.504 150.467 942.971 145.8C950.438 141.133 958.771 138.8 967.971 138.8C975.838 138.8 982.704 140.4 988.571 143.6C994.571 146.8 999.171 151 1002.37 156.2V140.4H1036.57V252H1002.37V236.2C999.038 241.4 994.371 245.6 988.371 248.8C982.504 252 975.638 253.6 967.771 253.6C958.704 253.6 950.438 251.267 942.971 246.6C935.504 241.8 929.571 235.067 925.171 226.4C920.904 217.6 918.771 207.467 918.771 196ZM1002.37 196.2C1002.37 187.667 999.971 180.933 995.171 176C990.504 171.067 984.771 168.6 977.971 168.6C971.171 168.6 965.371 171.067 960.571 176C955.904 180.8 953.571 187.467 953.571 196C953.571 204.533 955.904 211.333 960.571 216.4C965.371 221.333 971.171 223.8 977.971 223.8C984.771 223.8 990.504 221.333 995.171 216.4C999.971 211.467 1002.37 204.733 1002.37 196.2ZM1095.51 156.2C1098.71 151 1103.31 146.8 1109.31 143.6C1115.31 140.4 1122.18 138.8 1129.91 138.8C1139.11 138.8 1147.45 141.133 1154.91 145.8C1162.38 150.467 1168.25 157.133 1172.51 165.8C1176.91 174.467 1179.11 184.533 1179.11 196C1179.11 207.467 1176.91 217.6 1172.51 226.4C1168.25 235.067 1162.38 241.8 1154.91 246.6C1147.45 251.267 1139.11 253.6 1129.91 253.6C1122.05 253.6 1115.18 252.067 1109.31 249C1103.45 245.8 1098.85 241.6 1095.51 236.4V252H1061.31V104H1095.51V156.2ZM1144.31 196C1144.31 187.467 1141.91 180.8 1137.11 176C1132.45 171.067 1126.65 168.6 1119.71 168.6C1112.91 168.6 1107.11 171.067 1102.31 176C1097.65 180.933 1095.31 187.667 1095.31 196.2C1095.31 204.733 1097.65 211.467 1102.31 216.4C1107.11 221.333 1112.91 223.8 1119.71 223.8C1126.51 223.8 1132.31 221.333 1137.11 216.4C1141.91 211.333 1144.31 204.533 1144.31 196Z" fill="white"/>
<path d="M501.6 291.3L494.22 333H487.38L494.76 291.3H501.6ZM525.82 299.4C529.3 299.4 532.06 300.34 534.1 302.22C536.18 304.06 537.22 306.72 537.22 310.2C537.22 311.08 537.12 312.18 536.92 313.5L533.44 333H526.66L529.96 314.52C530.12 313.4 530.2 312.6 530.2 312.12C530.2 309.92 529.58 308.24 528.34 307.08C527.14 305.92 525.46 305.34 523.3 305.34C520.7 305.34 518.5 306.14 516.7 307.74C514.94 309.3 513.82 311.56 513.34 314.52V314.34L510.04 333H503.2L509.02 299.94H515.86L515.2 303.78C516.56 302.42 518.16 301.36 520 300.6C521.88 299.8 523.82 299.4 525.82 299.4ZM551.765 323.82C551.685 324.38 551.645 324.74 551.645 324.9C551.645 325.74 551.905 326.36 552.425 326.76C552.945 327.12 553.805 327.3 555.005 327.3H559.205L558.185 333H552.785C550.145 333 548.125 332.48 546.725 331.44C545.325 330.36 544.625 328.66 544.625 326.34C544.625 325.46 544.705 324.62 544.865 323.82L548.105 305.52H544.205L545.165 299.94H549.125L550.565 291.72H557.465L556.025 299.94H564.005L563.045 305.52H555.005L551.765 323.82ZM584.649 299.4C588.769 299.4 592.049 300.56 594.489 302.88C596.969 305.2 598.209 308.32 598.209 312.24C598.209 313.16 598.109 314.26 597.909 315.54C597.749 316.42 597.469 317.5 597.069 318.78H571.809C571.769 319.06 571.749 319.48 571.749 320.04C571.749 322.4 572.469 324.28 573.909 325.68C575.389 327.08 577.309 327.78 579.669 327.78C583.389 327.78 586.249 326.24 588.249 323.16H595.629C594.109 326.2 591.869 328.7 588.909 330.66C585.949 332.58 582.529 333.54 578.649 333.54C575.889 333.54 573.469 333 571.389 331.92C569.309 330.84 567.689 329.3 566.529 327.3C565.369 325.26 564.789 322.88 564.789 320.16C564.789 319 564.909 317.76 565.149 316.44C565.749 313.04 566.969 310.06 568.809 307.5C570.649 304.9 572.929 302.9 575.649 301.5C578.409 300.1 581.409 299.4 584.649 299.4ZM591.069 313.86C591.149 313.14 591.189 312.62 591.189 312.3C591.189 310.1 590.449 308.36 588.969 307.08C587.529 305.8 585.649 305.16 583.329 305.16C580.889 305.16 578.689 305.94 576.729 307.5C574.769 309.06 573.429 311.18 572.709 313.86H591.069ZM613.161 305.76C614.521 303.76 616.121 302.2 617.961 301.08C619.841 299.96 621.921 299.4 624.201 299.4L622.941 306.48H621.201C618.561 306.48 616.441 307.14 614.841 308.46C613.241 309.78 612.121 312.06 611.481 315.3L608.361 333H601.521L607.341 299.94H614.181L613.161 305.76ZM625.208 316.32C625.808 313 627.008 310.06 628.808 307.5C630.648 304.94 632.888 302.96 635.528 301.56C638.168 300.12 640.928 299.4 643.808 299.4C646.408 299.4 648.588 299.92 650.348 300.96C652.108 301.96 653.428 303.22 654.308 304.74L655.148 299.94H662.048L656.228 333H649.328L650.228 328.08C648.788 329.64 646.968 330.94 644.768 331.98C642.608 333.02 640.248 333.54 637.688 333.54C635.208 333.54 632.988 332.98 631.028 331.86C629.108 330.74 627.588 329.16 626.468 327.12C625.388 325.04 624.848 322.66 624.848 319.98C624.848 318.78 624.968 317.56 625.208 316.32ZM652.268 316.44C652.428 315.68 652.508 314.86 652.508 313.98C652.508 311.3 651.708 309.2 650.108 307.68C648.548 306.12 646.588 305.34 644.228 305.34C642.468 305.34 640.748 305.78 639.068 306.66C637.388 307.5 635.928 308.76 634.688 310.44C633.448 312.08 632.628 314.04 632.228 316.32C632.068 317.08 631.988 317.9 631.988 318.78C631.988 321.5 632.768 323.66 634.328 325.26C635.928 326.82 637.908 327.6 640.268 327.6C642.028 327.6 643.748 327.16 645.428 326.28C647.108 325.4 648.568 324.12 649.808 322.44C651.048 320.72 651.868 318.72 652.268 316.44ZM665.872 316.44C666.472 313.04 667.672 310.06 669.472 307.5C671.312 304.9 673.572 302.9 676.252 301.5C678.972 300.1 681.912 299.4 685.072 299.4C689.072 299.4 692.212 300.36 694.492 302.28C696.772 304.16 698.072 306.86 698.392 310.38H691.012C690.692 308.74 689.952 307.46 688.792 306.54C687.632 305.62 686.052 305.16 684.052 305.16C681.252 305.16 678.852 306.16 676.852 308.16C674.852 310.12 673.532 312.88 672.892 316.44C672.692 317.72 672.592 318.76 672.592 319.56C672.592 322.2 673.252 324.24 674.572 325.68C675.892 327.08 677.732 327.78 680.092 327.78C684.052 327.78 686.972 326.04 688.852 322.56H696.232C694.672 325.92 692.392 328.6 689.392 330.6C686.432 332.56 682.992 333.54 679.072 333.54C674.912 333.54 671.612 332.36 669.172 330C666.732 327.6 665.512 324.36 665.512 320.28C665.512 319.04 665.632 317.76 665.872 316.44ZM710.789 323.82C710.709 324.38 710.669 324.74 710.669 324.9C710.669 325.74 710.929 326.36 711.449 326.76C711.969 327.12 712.829 327.3 714.029 327.3H718.229L717.209 333H711.809C709.169 333 707.149 332.48 705.749 331.44C704.349 330.36 703.649 328.66 703.649 326.34C703.649 325.46 703.729 324.62 703.889 323.82L707.129 305.52H703.229L704.189 299.94H708.149L709.589 291.72H716.489L715.049 299.94H723.029L722.069 305.52H714.029L710.789 323.82ZM733.593 295.56C732.513 295.56 731.633 295.22 730.953 294.54C730.273 293.86 729.933 293 729.933 291.96C729.933 290.56 730.453 289.36 731.493 288.36C732.573 287.32 733.793 286.8 735.153 286.8C736.233 286.8 737.093 287.14 737.733 287.82C738.413 288.5 738.753 289.36 738.753 290.4C738.753 291.8 738.233 293.02 737.193 294.06C736.153 295.06 734.953 295.56 733.593 295.56ZM736.173 299.94L730.353 333H723.513L729.333 299.94H736.173ZM753.193 326.88L767.293 299.94H774.673L756.253 333H747.973L741.253 299.94H748.573L753.193 326.88ZM794.063 299.4C798.183 299.4 801.463 300.56 803.903 302.88C806.383 305.2 807.623 308.32 807.623 312.24C807.623 313.16 807.523 314.26 807.323 315.54C807.163 316.42 806.883 317.5 806.483 318.78H781.223C781.183 319.06 781.163 319.48 781.163 320.04C781.163 322.4 781.883 324.28 783.323 325.68C784.803 327.08 786.723 327.78 789.083 327.78C792.803 327.78 795.663 326.24 797.663 323.16H805.043C803.523 326.2 801.283 328.7 798.323 330.66C795.363 332.58 791.943 333.54 788.063 333.54C785.303 333.54 782.883 333 780.803 331.92C778.723 330.84 777.103 329.3 775.943 327.3C774.783 325.26 774.203 322.88 774.203 320.16C774.203 319 774.323 317.76 774.563 316.44C775.163 313.04 776.383 310.06 778.223 307.5C780.063 304.9 782.343 302.9 785.063 301.5C787.823 300.1 790.823 299.4 794.063 299.4ZM800.483 313.86C800.563 313.14 800.603 312.62 800.603 312.3C800.603 310.1 799.863 308.36 798.383 307.08C796.943 305.8 795.063 305.16 792.743 305.16C790.303 305.16 788.103 305.94 786.143 307.5C784.183 309.06 782.843 311.18 782.123 313.86H800.483ZM872.963 308.28C872.963 313.12 871.863 317.48 869.663 321.36C867.463 325.2 864.463 328.18 860.663 330.3L868.583 340.56H859.883L854.063 332.76C852.103 333.2 850.123 333.42 848.123 333.42C844.603 333.42 841.503 332.68 838.823 331.2C836.143 329.72 834.063 327.64 832.583 324.96C831.103 322.28 830.363 319.24 830.363 315.84C830.363 311.08 831.423 306.8 833.543 303C835.703 299.16 838.663 296.16 842.423 294C846.223 291.84 850.463 290.76 855.143 290.76C858.703 290.76 861.823 291.5 864.503 292.98C867.183 294.46 869.263 296.54 870.743 299.22C872.223 301.86 872.963 304.88 872.963 308.28ZM837.443 315.42C837.443 319.06 838.463 321.94 840.503 324.06C842.583 326.18 845.443 327.24 849.083 327.24C852.363 327.24 855.263 326.4 857.783 324.72C860.343 323.04 862.323 320.8 863.723 318C865.163 315.16 865.883 312.08 865.883 308.76C865.883 305.12 864.843 302.26 862.763 300.18C860.723 298.06 857.863 297 854.183 297C850.903 297 847.983 297.84 845.423 299.52C842.903 301.16 840.943 303.38 839.543 306.18C838.143 308.98 837.443 312.06 837.443 315.42ZM911.91 299.94L906.09 333H899.25L899.91 329.1C898.59 330.46 896.99 331.54 895.11 332.34C893.27 333.1 891.37 333.48 889.41 333.48C885.93 333.48 883.15 332.54 881.07 330.66C878.99 328.78 877.95 326.12 877.95 322.68C877.95 321.76 878.05 320.66 878.25 319.38L881.67 299.94H888.45L885.21 318.36C885.05 319.48 884.97 320.28 884.97 320.76C884.97 322.96 885.57 324.64 886.77 325.8C888.01 326.96 889.71 327.54 891.87 327.54C894.39 327.54 896.53 326.8 898.29 325.32C900.05 323.8 901.21 321.62 901.77 318.78L905.07 299.94H911.91ZM926.754 305.76C928.114 303.76 929.714 302.2 931.554 301.08C933.434 299.96 935.514 299.4 937.794 299.4L936.534 306.48H934.794C932.154 306.48 930.034 307.14 928.434 308.46C926.834 309.78 925.714 312.06 925.074 315.3L921.954 333H915.114L920.934 299.94H927.774L926.754 305.76ZM938.802 316.32C939.402 313 940.602 310.06 942.402 307.5C944.242 304.94 946.482 302.96 949.122 301.56C951.762 300.12 954.522 299.4 957.402 299.4C960.002 299.4 962.182 299.92 963.942 300.96C965.702 301.96 967.022 303.22 967.902 304.74L968.742 299.94H975.642L969.822 333H962.922L963.822 328.08C962.382 329.64 960.562 330.94 958.362 331.98C956.202 333.02 953.842 333.54 951.282 333.54C948.802 333.54 946.582 332.98 944.622 331.86C942.702 330.74 941.182 329.16 940.062 327.12C938.982 325.04 938.442 322.66 938.442 319.98C938.442 318.78 938.562 317.56 938.802 316.32ZM965.862 316.44C966.022 315.68 966.102 314.86 966.102 313.98C966.102 311.3 965.302 309.2 963.702 307.68C962.142 306.12 960.182 305.34 957.822 305.34C956.062 305.34 954.342 305.78 952.662 306.66C950.982 307.5 949.522 308.76 948.282 310.44C947.042 312.08 946.222 314.04 945.822 316.32C945.662 317.08 945.582 317.9 945.582 318.78C945.582 321.5 946.362 323.66 947.922 325.26C949.522 326.82 951.502 327.6 953.862 327.6C955.622 327.6 957.342 327.16 959.022 326.28C960.702 325.4 962.162 324.12 963.402 322.44C964.642 320.72 965.462 318.72 965.862 316.44ZM1001.43 299.4C1004.91 299.4 1007.67 300.34 1009.71 302.22C1011.79 304.06 1012.83 306.72 1012.83 310.2C1012.83 311.08 1012.73 312.18 1012.53 313.5L1009.05 333H1002.27L1005.57 314.52C1005.73 313.4 1005.81 312.6 1005.81 312.12C1005.81 309.92 1005.19 308.24 1003.95 307.08C1002.75 305.92 1001.07 305.34 998.906 305.34C996.306 305.34 994.106 306.14 992.306 307.74C990.546 309.3 989.426 311.56 988.946 314.52V314.34L985.646 333H978.806L984.626 299.94H991.466L990.806 303.78C992.166 302.42 993.766 301.36 995.606 300.6C997.486 299.8 999.426 299.4 1001.43 299.4ZM1043.56 327.78H1057.66L1056.7 333H1035.76L1043.14 291.3H1049.98L1043.56 327.78ZM1063.08 316.32C1063.68 313 1064.88 310.06 1066.68 307.5C1068.52 304.94 1070.76 302.96 1073.4 301.56C1076.04 300.12 1078.8 299.4 1081.68 299.4C1084.28 299.4 1086.46 299.92 1088.22 300.96C1089.98 301.96 1091.3 303.22 1092.18 304.74L1093.02 299.94H1099.92L1094.1 333H1087.2L1088.1 328.08C1086.66 329.64 1084.84 330.94 1082.64 331.98C1080.48 333.02 1078.12 333.54 1075.56 333.54C1073.08 333.54 1070.86 332.98 1068.9 331.86C1066.98 330.74 1065.46 329.16 1064.34 327.12C1063.26 325.04 1062.72 322.66 1062.72 319.98C1062.72 318.78 1062.84 317.56 1063.08 316.32ZM1090.14 316.44C1090.3 315.68 1090.38 314.86 1090.38 313.98C1090.38 311.3 1089.58 309.2 1087.98 307.68C1086.42 306.12 1084.46 305.34 1082.1 305.34C1080.34 305.34 1078.62 305.78 1076.94 306.66C1075.26 307.5 1073.8 308.76 1072.56 310.44C1071.32 312.08 1070.5 314.04 1070.1 316.32C1069.94 317.08 1069.86 317.9 1069.86 318.78C1069.86 321.5 1070.64 323.66 1072.2 325.26C1073.8 326.82 1075.78 327.6 1078.14 327.6C1079.9 327.6 1081.62 327.16 1083.3 326.28C1084.98 325.4 1086.44 324.12 1087.68 322.44C1088.92 320.72 1089.74 318.72 1090.14 316.44ZM1114.9 304.86C1116.34 303.26 1118.16 301.96 1120.36 300.96C1122.56 299.92 1124.9 299.4 1127.38 299.4C1129.94 299.4 1132.18 299.94 1134.1 301.02C1136.06 302.1 1137.58 303.64 1138.66 305.64C1139.74 307.6 1140.28 309.92 1140.28 312.6C1140.28 313.76 1140.16 315 1139.92 316.32C1139.32 319.64 1138.1 322.62 1136.26 325.26C1134.46 327.86 1132.24 329.9 1129.6 331.38C1127 332.82 1124.26 333.54 1121.38 333.54C1118.82 333.54 1116.64 333.04 1114.84 332.04C1113.04 331.04 1111.68 329.76 1110.76 328.2L1109.92 333H1103.08L1110.94 288.6H1117.78L1114.9 304.86ZM1132.96 316.32C1133.12 315.56 1133.2 314.74 1133.2 313.86C1133.2 311.18 1132.4 309.1 1130.8 307.62C1129.24 306.1 1127.26 305.34 1124.86 305.34C1123.14 305.34 1121.42 305.78 1119.7 306.66C1118.02 307.54 1116.56 308.82 1115.32 310.5C1114.08 312.18 1113.26 314.16 1112.86 316.44C1112.7 317.2 1112.62 318.02 1112.62 318.9C1112.62 321.58 1113.4 323.7 1114.96 325.26C1116.56 326.82 1118.54 327.6 1120.9 327.6C1122.66 327.6 1124.38 327.16 1126.06 326.28C1127.78 325.36 1129.26 324.04 1130.5 322.32C1131.74 320.6 1132.56 318.6 1132.96 316.32Z" fill="white"/>
<path d="M278.869 228.104C274.075 228.943 270.204 228.385 267.257 226.43C264.309 224.476 262.447 221.282 261.672 216.849C261.23 214.321 261.291 212.06 261.856 210.066C262.453 208.067 263.852 206.874 266.052 206.489C266.906 206.34 267.703 206.353 268.444 206.528C269.213 206.664 269.79 206.868 270.175 207.138C269.398 207.917 268.78 209.125 268.322 210.762C267.891 212.36 267.848 214.144 268.193 216.114C268.658 218.774 269.77 220.678 271.527 221.825C273.29 223.006 275.419 223.378 277.915 222.941C280.542 222.481 282.287 221.432 283.15 219.792C284.047 218.146 284.323 216.338 283.978 214.368L280.557 194.815C280.402 193.928 280.516 193.13 280.899 192.42C281.31 191.671 282.073 191.199 283.189 191.004C284.306 190.809 285.168 190.996 285.775 191.567C286.415 192.132 286.816 192.874 286.977 193.793L290.234 212.41C291.785 221.276 287.997 226.507 278.869 228.104ZM272.206 192.926C271.188 193.104 270.258 192.911 269.415 192.348C268.599 191.746 268.108 190.97 267.941 190.017C267.769 189.032 267.967 188.135 268.536 187.325C269.138 186.509 269.948 186.012 270.965 185.834C271.918 185.667 272.799 185.868 273.609 186.437C274.452 187 274.96 187.774 275.132 188.759C275.299 189.711 275.084 190.612 274.488 191.461C273.919 192.271 273.158 192.759 272.206 192.926ZM301.658 212.137C300.542 212.333 299.664 212.148 299.024 211.583C298.416 211.012 298.032 210.268 297.871 209.348L294.036 187.431C293.807 186.118 293.449 185.233 292.963 184.776C292.477 184.32 292.058 184.055 291.707 183.981C291.356 183.907 291.144 183.859 291.073 183.838C291.015 183.51 291.072 183.06 291.243 182.489C291.446 181.912 291.809 181.374 292.331 180.877C292.853 180.38 293.558 180.053 294.444 179.898C295.856 179.651 297.086 180.011 298.136 180.978C299.217 181.939 299.908 183.274 300.206 184.981L304.291 208.326C304.446 209.213 304.319 210.031 303.908 210.779C303.525 211.489 302.775 211.942 301.658 212.137ZM325.613 207.946L320.885 208.773L321.298 211.137C321.678 213.304 321.407 215.433 320.487 217.523C319.605 219.64 317.49 220.991 314.141 221.577C311.711 222.002 309.837 221.738 308.52 220.784C307.175 219.869 306.368 218.639 306.098 217.096C306.023 216.669 305.985 216.355 305.983 216.152C306.661 216.541 307.543 216.843 308.629 217.059C309.716 217.275 310.752 217.297 311.737 217.125C312.788 216.941 313.648 216.537 314.317 215.912C315.024 215.314 315.286 214.49 315.102 213.44L310.88 189.306C310.719 188.387 310.885 187.596 311.379 186.935C311.872 186.273 312.595 185.859 313.547 185.692C314.499 185.526 315.32 185.67 316.008 186.125C316.697 186.58 317.128 187.299 317.3 188.284L319.971 203.553L324.699 202.725L325.613 207.946ZM352.581 197.847L353.494 203.068L348.618 203.921C347.6 204.099 346.589 204.123 345.585 203.995C344.849 204.428 343.939 204.739 342.856 204.929L325.618 207.945L324.704 202.724L329.383 201.906C328.818 201.192 328.306 200.199 327.846 198.926C327.381 197.62 327.033 196.31 326.804 194.997C326.241 191.779 326.308 189.263 327.006 187.449C327.698 185.602 328.707 184.309 330.032 183.569C331.391 182.824 333.023 182.285 334.927 181.952C337.094 181.573 338.946 181.519 340.482 181.792C342.046 182.026 343.381 182.79 344.488 184.086C345.594 185.381 346.38 187.359 346.846 190.018L348.061 196.963C348.135 197.39 348.197 197.937 348.246 198.605L352.581 197.847ZM340.133 189.365C339.954 188.348 339.464 187.672 338.661 187.339C337.891 187 337.112 186.899 336.324 187.037C335.077 187.255 334.165 188.041 333.589 189.394C333.041 190.708 332.922 192.251 333.232 194.024C333.525 195.699 334.149 197.231 335.102 198.621C336.083 199.972 337.28 200.524 338.692 200.277L339.824 200.079C340.514 199.958 340.993 199.604 341.263 199.015C341.532 198.427 341.575 197.607 341.391 196.556L340.133 189.365ZM330.778 179.125C329.924 179.274 329.114 179.094 328.348 178.585C327.615 178.07 327.171 177.37 327.016 176.483C326.861 175.597 327.041 174.787 327.555 174.054C328.103 173.315 328.804 172.871 329.657 172.722C330.544 172.567 331.354 172.746 332.087 173.261C332.82 173.776 333.264 174.476 333.419 175.363C333.574 176.25 333.394 177.059 332.879 177.792C332.365 178.525 331.664 178.969 330.778 179.125ZM338.756 177.728C337.903 177.878 337.093 177.698 336.327 177.189C335.594 176.674 335.15 175.974 334.995 175.087C334.84 174.201 335.02 173.391 335.534 172.658C336.082 171.919 336.782 171.475 337.636 171.326C338.555 171.165 339.365 171.345 340.065 171.865C340.798 172.38 341.242 173.08 341.398 173.967C341.553 174.854 341.373 175.663 340.858 176.396C340.376 177.124 339.676 177.568 338.756 177.728ZM352.601 197.843L355.9 197.266C356.59 197.145 357.069 196.791 357.339 196.202C357.602 195.581 357.642 194.745 357.458 193.694L354.511 176.85C354.281 175.537 353.923 174.652 353.437 174.195C352.951 173.739 352.533 173.474 352.182 173.4C351.83 173.326 351.619 173.278 351.547 173.257C351.484 172.896 351.541 172.446 351.717 171.908C351.921 171.33 352.284 170.793 352.806 170.296C353.328 169.798 354.016 169.475 354.87 169.326C356.314 169.073 357.561 169.43 358.61 170.397C359.686 171.325 360.377 172.66 360.681 174.4L363.947 193.066C364.344 195.332 364.116 197.318 363.264 199.023C362.444 200.723 361 201.754 358.932 202.116L353.514 203.064L352.601 197.843ZM376.45 199.051C375.334 199.246 374.455 199.062 373.815 198.497C373.208 197.926 372.824 197.181 372.663 196.262L368.828 174.345C368.598 173.032 368.24 172.147 367.754 171.69C367.268 171.234 366.85 170.969 366.498 170.895C366.147 170.821 365.936 170.773 365.864 170.752C365.807 170.424 365.863 169.974 366.034 169.403C366.238 168.826 366.601 168.288 367.123 167.791C367.645 167.293 368.349 166.967 369.236 166.812C370.648 166.565 371.878 166.925 372.927 167.892C374.009 168.853 374.699 170.188 374.998 171.895L379.083 195.24C379.238 196.127 379.11 196.944 378.7 197.693C378.316 198.403 377.566 198.856 376.45 199.051Z" fill="white"/>
</svg>
